<svg xmlns="http://www.w3.org/2000/svg" width="1320" height="680" viewBox="0 0 1320 680">
<rect width="100%" height="100%" fill="#fbf7ef" />
<text x="110" y="44" font-size="28" font-family="sans-serif" fill="#1a1a1a">SMP host_ns 趋势</text>
<text x="110" y="67" font-size="14" font-family="sans-serif" fill="#555">仅绘制各轮后项数据; source: doc/perf-baseline-vs-optimized.md</text>
<line x1="110" y1="570.00" x2="1280" y2="570.00" stroke="#ddd4c7" stroke-width="1" />
<text x="98" y="575.00" text-anchor="end" font-size="13" font-family="monospace" fill="#5d5247">0</text>
<line x1="110" y1="472.00" x2="1280" y2="472.00" stroke="#ddd4c7" stroke-width="1" />
<text x="98" y="477.00" text-anchor="end" font-size="13" font-family="monospace" fill="#5d5247">16.35G</text>
<line x1="110" y1="374.00" x2="1280" y2="374.00" stroke="#ddd4c7" stroke-width="1" />
<text x="98" y="379.00" text-anchor="end" font-size="13" font-family="monospace" fill="#5d5247">32.70G</text>
<line x1="110" y1="276.00" x2="1280" y2="276.00" stroke="#ddd4c7" stroke-width="1" />
<text x="98" y="281.00" text-anchor="end" font-size="13" font-family="monospace" fill="#5d5247">49.05G</text>
<line x1="110" y1="178.00" x2="1280" y2="178.00" stroke="#ddd4c7" stroke-width="1" />
<text x="98" y="183.00" text-anchor="end" font-size="13" font-family="monospace" fill="#5d5247">65.40G</text>
<line x1="110" y1="80.00" x2="1280" y2="80.00" stroke="#ddd4c7" stroke-width="1" />
<text x="98" y="85.00" text-anchor="end" font-size="13" font-family="monospace" fill="#5d5247">81.75G</text>
<line x1="110.00" y1="80" x2="110.00" y2="570" stroke="#efe7db" stroke-width="1" />
<text x="110.00" y="640" text-anchor="middle" font-size="12" font-family="sans-serif" fill="#5d5247">7E</text>
<line x1="344.00" y1="80" x2="344.00" y2="570" stroke="#efe7db" stroke-width="1" />
<text x="344.00" y="640" text-anchor="middle" font-size="12" font-family="sans-serif" fill="#5d5247">18</text>
<line x1="578.00" y1="80" x2="578.00" y2="570" stroke="#efe7db" stroke-width="1" />
<text x="578.00" y="640" text-anchor="middle" font-size="12" font-family="sans-serif" fill="#5d5247">19</text>
<line x1="812.00" y1="80" x2="812.00" y2="570" stroke="#efe7db" stroke-width="1" />
<text x="812.00" y="640" text-anchor="middle" font-size="12" font-family="sans-serif" fill="#5d5247">20</text>
<line x1="1046.00" y1="80" x2="1046.00" y2="570" stroke="#efe7db" stroke-width="1" />
<text x="1046.00" y="640" text-anchor="middle" font-size="12" font-family="sans-serif" fill="#5d5247">21</text>
<line x1="1280.00" y1="80" x2="1280.00" y2="570" stroke="#efe7db" stroke-width="1" />
<text x="1280.00" y="640" text-anchor="middle" font-size="12" font-family="sans-serif" fill="#5d5247">22</text>
<rect x="110" y="80" width="1170" height="490" fill="none" stroke="#8f8172" stroke-width="1.5" />
<polyline fill="none" stroke="#2f6f5e" stroke-width="3" stroke-linecap="round" stroke-linejoin="round" points="110.00,184.71 344.00,98.94 578.00,122.58 812.00,539.06 1046.00,511.08 1280.00,541.11" />
<circle cx="110.00" cy="184.71" r="4.5" fill="#2f6f5e" />
<text x="110.00" y="174.71" text-anchor="middle" font-size="12" font-family="monospace" fill="#2f6f5e">64.28G</text>
<circle cx="344.00" cy="98.94" r="4.5" fill="#2f6f5e" />
<text x="344.00" y="88.94" text-anchor="middle" font-size="12" font-family="monospace" fill="#2f6f5e">78.59G</text>
<circle cx="578.00" cy="122.58" r="4.5" fill="#2f6f5e" />
<text x="578.00" y="112.58" text-anchor="middle" font-size="12" font-family="monospace" fill="#2f6f5e">74.64G</text>
<circle cx="812.00" cy="539.06" r="4.5" fill="#2f6f5e" />
<text x="812.00" y="529.06" text-anchor="middle" font-size="12" font-family="monospace" fill="#2f6f5e">5.16G</text>
<circle cx="1046.00" cy="511.08" r="4.5" fill="#2f6f5e" />
<text x="1046.00" y="501.08" text-anchor="middle" font-size="12" font-family="monospace" fill="#2f6f5e">9.83G</text>
<circle cx="1280.00" cy="541.11" r="4.5" fill="#2f6f5e" />
<text x="1280.00" y="531.11" text-anchor="middle" font-size="12" font-family="monospace" fill="#2f6f5e">4.82G</text>
</svg>
